<svg width="605" height="573" viewBox="0 0 605 573" fill="none" xmlns="http://www.w3.org/2000/svg">
    <g filter="url(#filter0_dddddd_0_3)">
        <path d="M191.549 117.343C191.549 46.6697 244.238 0.973145 302.473 0.973145C357.935 0.973145 408.406 42.4122 412.982 107.409H445.15C451.389 107.409 454.439 115.073 450.002 119.472L404.386 166.162C401.612 169 397.313 169 394.54 166.162L348.923 119.472C347.972 118.48 347.327 117.225 347.069 115.861C346.808 114.498 346.945 113.087 347.463 111.802C347.979 110.518 348.852 109.417 349.975 108.636C351.097 107.855 352.418 107.429 353.775 107.409H385.111C380.814 61.145 345.873 29.3561 302.473 29.3561C256.024 29.3561 219.28 65.8281 219.28 117.343C219.28 150.551 246.319 194.545 302.473 247.053C311.347 238.679 319.529 230.591 327.016 222.785C324.576 217.859 323.294 212.415 323.271 206.89C323.271 197.482 326.923 188.458 333.425 181.804C339.924 175.151 348.741 171.413 357.935 171.413C367.129 171.413 375.946 175.151 382.445 181.804C388.947 188.458 392.599 197.482 392.599 206.89C392.595 212.38 391.342 217.791 388.94 222.696C386.539 227.603 383.055 231.871 378.764 235.162C374.473 238.452 369.492 240.676 364.217 241.656C358.942 242.636 353.514 242.346 348.369 240.809C337.554 252.446 325.212 264.367 311.624 276.571C306.355 281.254 298.453 281.254 293.184 276.571C225.52 215.548 191.549 162.472 191.549 117.343Z" fill="#DA1212"/>
        <path d="M96.1375 339.06H80.8875V331.659H119.933V339.06H104.683V378.754H96.1375V339.06ZM132.545 348.075C134.911 344.308 139.074 342.424 145.034 342.424V350.43C144.333 350.295 143.697 350.228 143.128 350.228C139.929 350.228 137.431 351.193 135.634 353.121C133.838 355.005 132.939 357.74 132.939 361.329V378.754H124.723V342.827H132.545V348.075ZM165.221 342.424C170.392 342.424 174.336 343.702 177.053 346.259C179.814 348.771 181.194 352.583 181.194 357.696V378.754H173.438V374.381C172.43 375.951 170.984 377.162 169.1 378.014C167.259 378.821 165.024 379.225 162.395 379.225C159.765 379.225 157.465 378.777 155.493 377.879C153.521 376.937 151.987 375.659 150.892 374.044C149.84 372.386 149.314 370.523 149.314 368.46C149.314 365.231 150.475 362.651 152.798 360.723C155.164 358.749 158.867 357.763 163.907 357.763H172.978V357.225C172.978 354.713 172.233 352.785 170.743 351.439C169.297 350.094 167.128 349.421 164.235 349.421C162.263 349.421 160.313 349.734 158.385 350.363C156.501 350.991 154.901 351.866 153.587 352.986L150.366 346.864C152.206 345.428 154.419 344.331 157.005 343.568C159.59 342.804 162.329 342.424 165.221 342.424ZM164.104 373.103C166.163 373.103 167.982 372.632 169.56 371.69C171.181 370.704 172.32 369.312 172.978 367.519V363.347H164.498C159.765 363.347 157.399 364.939 157.399 368.124C157.399 369.648 157.991 370.859 159.174 371.757C160.357 372.655 162 373.103 164.104 373.103ZM223.964 342.827L208.911 378.754H200.432L185.378 342.827H193.924L204.836 369.47L216.076 342.827H223.964ZM261.135 360.993C261.135 361.575 261.09 362.405 261.004 363.482H233.462C233.942 366.129 235.191 368.235 237.208 369.806C239.267 371.33 241.81 372.093 244.833 372.093C248.689 372.093 251.867 370.792 254.365 368.191L258.769 373.372C257.191 375.3 255.197 376.759 252.787 377.745C250.376 378.731 247.66 379.225 244.636 379.225C240.779 379.225 237.383 378.441 234.448 376.87C231.51 375.3 229.232 373.126 227.611 370.344C226.034 367.519 225.245 364.333 225.245 360.791C225.245 357.292 226.011 354.153 227.546 351.372C229.123 348.546 231.292 346.349 234.053 344.779C236.814 343.208 239.924 342.424 243.387 342.424C246.805 342.424 249.85 343.208 252.524 344.779C255.24 346.303 257.343 348.479 258.835 351.305C260.367 354.086 261.135 357.315 261.135 360.993ZM243.387 349.152C240.758 349.152 238.523 349.959 236.683 351.574C234.885 353.144 233.79 355.251 233.396 357.898H253.313C252.962 355.297 251.887 353.188 250.092 351.574C248.295 349.959 246.06 349.152 243.387 349.152ZM269.027 328.834H277.244V378.754H269.027V328.834ZM339.587 354.265C342.128 355.116 344.143 356.552 345.635 358.571C347.124 360.545 347.87 363.011 347.87 365.971C347.87 370.052 346.335 373.214 343.268 375.457C340.199 377.654 335.73 378.754 329.859 378.754H306.984V331.659H328.544C333.977 331.659 338.162 332.759 341.099 334.956C344.035 337.109 345.503 340.092 345.503 343.904C345.503 346.236 344.977 348.3 343.926 350.094C342.874 351.887 341.428 353.279 339.587 354.265ZM315.529 338.522V351.506H327.624C330.602 351.506 332.883 350.968 334.46 349.892C336.081 348.771 336.892 347.156 336.892 345.048C336.892 342.895 336.081 341.28 334.46 340.204C332.883 339.083 330.602 338.522 327.624 338.522H315.529ZM329.333 371.892C335.949 371.892 339.259 369.627 339.259 365.097C339.259 360.566 335.949 358.301 329.333 358.301H315.529V371.892H329.333ZM390.183 342.827V378.754H382.361V374.179C381.046 375.794 379.403 377.049 377.431 377.947C375.459 378.798 373.335 379.225 371.055 379.225C366.367 379.225 362.664 377.902 359.946 375.255C357.274 372.564 355.936 368.595 355.936 363.347V342.827H364.153V362.204C364.153 365.433 364.855 367.855 366.256 369.47C367.702 371.04 369.74 371.824 372.37 371.824C375.307 371.824 377.628 370.906 379.337 369.066C381.091 367.182 381.967 364.491 381.967 360.993V342.827H390.183ZM435.321 328.834V378.754H427.433V374.112C426.073 375.817 424.387 377.095 422.372 377.947C420.4 378.798 418.208 379.225 415.798 379.225C412.423 379.225 409.377 378.462 406.662 376.937C403.987 375.413 401.884 373.26 400.351 370.479C398.817 367.653 398.051 364.424 398.051 360.791C398.051 357.158 398.817 353.951 400.351 351.17C401.884 348.388 403.987 346.236 406.662 344.711C409.377 343.187 412.423 342.424 415.798 342.424C418.12 342.424 420.246 342.827 422.174 343.635C424.101 344.442 425.745 345.653 427.104 347.268V328.834H435.321ZM416.784 372.026C418.756 372.026 420.531 371.578 422.109 370.681C423.686 369.739 424.935 368.416 425.856 366.711C426.776 365.006 427.236 363.034 427.236 360.791C427.236 358.547 426.776 356.575 425.856 354.87C424.935 353.165 423.686 351.866 422.109 350.968C420.531 350.026 418.756 349.555 416.784 349.555C414.812 349.555 413.038 350.026 411.46 350.968C409.882 351.866 408.634 353.165 407.713 354.87C406.793 356.575 406.333 358.547 406.333 360.791C406.333 363.034 406.793 365.006 407.713 366.711C408.634 368.416 409.882 369.739 411.46 370.681C413.038 371.578 414.812 372.026 416.784 372.026ZM480.447 328.834V378.754H472.559V374.112C471.201 375.817 469.514 377.095 467.497 377.947C465.525 378.798 463.336 379.225 460.924 379.225C457.551 379.225 454.505 378.462 451.787 376.937C449.115 375.413 447.011 373.26 445.477 370.479C443.944 367.653 443.176 364.424 443.176 360.791C443.176 357.158 443.944 353.951 445.477 351.17C447.011 348.388 449.115 346.236 451.787 344.711C454.505 343.187 457.551 342.424 460.924 342.424C463.247 342.424 465.373 342.827 467.3 343.635C469.229 344.442 470.872 345.653 472.23 347.268V328.834H480.447ZM461.91 372.026C463.882 372.026 465.657 371.578 467.234 370.681C468.812 369.739 470.061 368.416 470.981 366.711C471.901 365.006 472.362 363.034 472.362 360.791C472.362 358.547 471.901 356.575 470.981 354.87C470.061 353.165 468.812 351.866 467.234 350.968C465.657 350.026 463.882 349.555 461.91 349.555C459.938 349.555 458.163 350.026 456.586 350.968C455.008 351.866 453.759 353.165 452.839 354.87C451.919 356.575 451.458 358.547 451.458 360.791C451.458 363.034 451.919 365.006 452.839 366.711C453.759 368.416 455.008 369.739 456.586 370.681C458.163 371.578 459.938 372.026 461.91 372.026ZM524.062 342.827L507.629 381.647C506.095 385.549 504.234 388.284 502.042 389.855C499.85 391.469 497.2 392.277 494.088 392.277C492.336 392.277 490.604 391.985 488.895 391.402C487.186 390.82 485.783 390.013 484.688 388.98L487.975 382.791C488.764 383.554 489.684 384.159 490.736 384.607C491.831 385.055 492.928 385.28 494.023 385.28C495.469 385.28 496.652 384.899 497.572 384.136C498.535 383.373 499.413 382.095 500.201 380.301L500.793 378.889L485.477 342.827H494.023L505.066 369.402L516.174 342.827H524.062Z" fill="#041562"/>
    </g>
    <defs>
        <filter id="filter0_dddddd_0_3" x="0" y="0" width="605" height="573" filterUnits="userSpaceOnUse" color-interpolation-filters="sRGB">
            <feFlood flood-opacity="0" result="BackgroundImageFix"/>
            <feColorMatrix in="SourceAlpha" type="matrix" values="0 0 0 0 0 0 0 0 0 0 0 0 0 0 0 0 0 0 127 0" result="hardAlpha"/>
            <feOffset dy="2.76726"/>
            <feGaussianBlur stdDeviation="1.1069"/>
            <feColorMatrix type="matrix" values="0 0 0 0 0.0156863 0 0 0 0 0.0823529 0 0 0 0 0.384314 0 0 0 0.0477948 0"/>
            <feBlend mode="normal" in2="BackgroundImageFix" result="effect1_dropShadow_0_3"/>
            <feColorMatrix in="SourceAlpha" type="matrix" values="0 0 0 0 0 0 0 0 0 0 0 0 0 0 0 0 0 0 127 0" result="hardAlpha"/>
            <feOffset dy="6.6501"/>
            <feGaussianBlur stdDeviation="2.66004"/>
            <feColorMatrix type="matrix" values="0 0 0 0 0.0156863 0 0 0 0 0.0823529 0 0 0 0 0.384314 0 0 0 0.0686618 0"/>
            <feBlend mode="normal" in2="effect1_dropShadow_0_3" result="effect2_dropShadow_0_3"/>
            <feColorMatrix in="SourceAlpha" type="matrix" values="0 0 0 0 0 0 0 0 0 0 0 0 0 0 0 0 0 0 127 0" result="hardAlpha"/>
            <feOffset dy="12.5216"/>
            <feGaussianBlur stdDeviation="5.00862"/>
            <feColorMatrix type="matrix" values="0 0 0 0 0.0156863 0 0 0 0 0.0823529 0 0 0 0 0.384314 0 0 0 0.085 0"/>
            <feBlend mode="normal" in2="effect2_dropShadow_0_3" result="effect3_dropShadow_0_3"/>
            <feColorMatrix in="SourceAlpha" type="matrix" values="0 0 0 0 0 0 0 0 0 0 0 0 0 0 0 0 0 0 127 0" result="hardAlpha"/>
            <feOffset dy="22.3363"/>
            <feGaussianBlur stdDeviation="8.93452"/>
            <feColorMatrix type="matrix" values="0 0 0 0 0.0156863 0 0 0 0 0.0823529 0 0 0 0 0.384314 0 0 0 0.101338 0"/>
            <feBlend mode="normal" in2="effect3_dropShadow_0_3" result="effect4_dropShadow_0_3"/>
            <feColorMatrix in="SourceAlpha" type="matrix" values="0 0 0 0 0 0 0 0 0 0 0 0 0 0 0 0 0 0 127 0" result="hardAlpha"/>
            <feOffset dy="41.7776"/>
            <feGaussianBlur stdDeviation="16.711"/>
            <feColorMatrix type="matrix" values="0 0 0 0 0.0156863 0 0 0 0 0.0823529 0 0 0 0 0.384314 0 0 0 0.122205 0"/>
            <feBlend mode="normal" in2="effect4_dropShadow_0_3" result="effect5_dropShadow_0_3"/>
            <feColorMatrix in="SourceAlpha" type="matrix" values="0 0 0 0 0 0 0 0 0 0 0 0 0 0 0 0 0 0 127 0" result="hardAlpha"/>
            <feOffset dy="100"/>
            <feGaussianBlur stdDeviation="40"/>
            <feColorMatrix type="matrix" values="0 0 0 0 0.0156863 0 0 0 0 0.0823529 0 0 0 0 0.384314 0 0 0 0.17 0"/>
            <feBlend mode="normal" in2="effect5_dropShadow_0_3" result="effect6_dropShadow_0_3"/>
            <feBlend mode="normal" in="SourceGraphic" in2="effect6_dropShadow_0_3" result="shape"/>
        </filter>
    </defs>
</svg>
